<?xml version="1.0" encoding="utf-8"?><svg version="1.1" id="Layer_1" xmlns="http://www.w3.org/2000/svg" xmlns:xlink="http://www.w3.org/1999/xlink" x="0px" y="0px" viewBox="0 0 117.63 122.88" style="enable-background:new 0 0 117.63 122.88" xml:space="preserve"><style type="text/css"><![CDATA[
	.st0{fill:#AD473B;}
	.st1{fill-rule:evenodd;clip-rule:evenodd;fill:#262626;}
]]></style><g><path class="st1" d="M116.41,50.69v4.02c0.04,0.38,0.06,0.77,0.06,1.15c0,6.75-6.31,12.23-14.1,12.23s-14.1-5.48-14.1-12.23 c0-0.28,0.01-0.58,0.03-0.87h-0.56c0.02,0.29,0.03,0.57,0.03,0.87c0,6.75-6.31,12.23-14.1,12.23s-14.1-5.48-14.1-12.23 c0-0.28,0.01-0.58,0.03-0.87h-0.56c0.02,0.29,0.03,0.57,0.03,0.87c0,6.75-6.31,12.23-14.1,12.23s-14.1-5.48-14.1-12.23 c0-0.28,0.01-0.58,0.03-0.87h-0.35c0.02,0.29,0.03,0.57,0.03,0.87c0,6.75-6.31,12.23-14.1,12.23c-7.79,0-14.1-5.48-14.1-12.23 c0-1.72,0.05-3.45,0.05-5.17H116.41L116.41,50.69L116.41,50.69z M111.8,33.11l4.76,11.9H2.13l5.71-13.85 c0.3,0.46,0.63,0.9,0.99,1.32c1.04,1.21,2.28,2.22,3.72,3.03l0.01-0.01l0.02,0.01c1.36,0.76,2.83,1.31,4.41,1.66 c1.43,0.31,2.94,0.47,4.55,0.47c1.65,0,3.23-0.2,4.77-0.61c1.42-0.38,2.75-0.93,3.99-1.67c0.19-0.1,0.37-0.21,0.55-0.32l0.41-0.27 c0.2,0.14,0.4,0.27,0.61,0.4c0.73,0.45,1.54,0.84,2.4,1.16c0.23,0.1,0.46,0.18,0.7,0.26c0.89,0.28,1.92,0.5,3.09,0.65 c1.11,0.14,2.15,0.22,3.12,0.22c1.03,0,2.09-0.09,3.18-0.27c1.12-0.18,2.16-0.45,3.1-0.8l0-0.01l0.06-0.02 c0.32-0.12,0.63-0.25,0.94-0.39c1.08,0.66,2.34,1.04,3.7,1.04h7.3c0.59,0,1.16-0.07,1.71-0.21c0.54,0.13,1.12,0.21,1.7,0.21h7.3 c1.43,0,2.76-0.42,3.87-1.15c0.35,0.16,0.7,0.31,1.07,0.45c1.02,0.39,2.11,0.68,3.27,0.87c1.13,0.19,2.24,0.28,3.32,0.28 c1.16,0,2.28-0.09,3.38-0.28c1.19-0.2,2.32-0.53,3.37-0.98l-0.01-0.01l0.03-0.01c0.91-0.39,1.75-0.86,2.52-1.41l0.07,0.05 c0.9,0.6,1.89,1.1,2.99,1.51c1.02,0.39,2.11,0.68,3.27,0.87c1.13,0.19,2.24,0.28,3.32,0.28c1.16,0,2.28-0.09,3.37-0.28 c1.2-0.2,2.32-0.53,3.37-0.98l-0.01-0.01l0.03-0.01c1.1-0.47,2.1-1.06,3-1.77C110.89,33.98,111.37,33.56,111.8,33.11L111.8,33.11z M3.33,108.27h11.9V76.74c0.2,0.01,0.39,0.02,0.59,0.02h0.05h0.23h0.04h0.03h0.16h0.03h0.14v0.03h0.01v-0.03 c5.38,0,10.36-1.72,14.23-4.57l0.03,0.02l0.03,0.02l0.03,0.02l0.03,0.02l0.03,0.02l0.03,0.02l0.01,0.01l0.02,0.01l0.03,0.02 l0.03,0.02l0.03,0.02h0.01l0.1,0.07l0,0l0.03,0.02l0.01,0.01l0.05,0.03l0.03,0.02l0.03,0.02l0.01,0.01l0.02,0.01l0.03,0.02 l0.03,0.02l0.03,0.02l0.02,0.06l0.03,0.02l0.02,0.02l0,0l0.03,0.02l0.03,0.02l0.03,0.02l0.03,0.02l0.03,0.02l0.03,0.02h0.01 L31.88,73l0.03,0.02l0.03,0.02l0.18,0.12l0.03,0.02l0.22,0.13l0.04,0.01l0.03,0.02l0.03,0.02l0.03,0.02l0.03,0.02l0.03,0.02 l0.03,0.02l0.03,0.02v18.57H85V74.01c0.84-0.44,1.67-0.94,2.45-1.48l0.02-0.02h0.01l0.16-0.11l0.01-0.01l0.05-0.03l0.05-0.03l0,0 l0.08-0.06h0.01l0.01-0.01l0.17-0.12c3.9,2.89,8.91,4.64,14.34,4.64v0.03h0.01v-0.03h0.03v31.5h11.9c1.84,0,3.34,3.28,3.34,7.29 c0,4.01-1.5,7.29-3.34,7.29l-110.96,0c-1.83,0-3.33-3.28-3.33-7.29C0,111.56,1.5,108.27,3.33,108.27L3.33,108.27L3.33,108.27z"/><path class="st0" d="M30.44,13.37H22.8V8.29c0-1.48-0.08-2.4-0.24-2.77c-0.16-0.36-0.52-0.55-1.07-0.55 c-0.62,0-1.01,0.22-1.18,0.67c-0.17,0.45-0.25,1.41-0.25,2.9v13.6c0,1.43,0.09,2.35,0.25,2.79c0.17,0.43,0.54,0.65,1.12,0.65 c0.56,0,0.93-0.22,1.11-0.65c0.17-0.43,0.26-1.46,0.26-3.07v-3.69h7.63v1.14c0,3.04-0.22,5.19-0.64,6.46 c-0.43,1.27-1.38,2.38-2.84,3.34c-1.47,0.96-3.27,1.43-5.42,1.43c-2.23,0-4.07-0.4-5.52-1.21c-1.44-0.81-2.41-1.93-2.88-3.36 s-0.7-3.58-0.7-6.45v-8.56c0-2.11,0.07-3.69,0.22-4.75c0.15-1.06,0.57-2.07,1.3-3.05c0.72-0.98,1.71-1.75,2.98-2.31 C18.2,0.28,19.66,0,21.32,0c2.24,0,4.09,0.43,5.56,1.3c1.46,0.86,2.41,1.94,2.88,3.24c0.46,1.3,0.69,3.31,0.69,6.04V13.37 L30.44,13.37z M49.47,14.32v5.88c0,2.16-0.11,3.74-0.33,4.75c-0.22,1.01-0.68,1.95-1.39,2.82c-0.71,0.88-1.62,1.52-2.74,1.94 c-1.12,0.41-2.4,0.62-3.84,0.62c-1.62,0-2.99-0.18-4.11-0.53c-1.12-0.36-1.99-0.9-2.61-1.61c-0.62-0.72-1.07-1.59-1.33-2.61 c-0.27-1.02-0.4-2.55-0.4-4.59v-6.16c0-2.23,0.24-3.98,0.72-5.24c0.48-1.25,1.35-2.26,2.61-3.02c1.25-0.76,2.86-1.14,4.81-1.14 c1.64,0,3.04,0.25,4.22,0.73c1.17,0.49,2.08,1.12,2.72,1.91c0.64,0.78,1.07,1.59,1.31,2.43C49.35,11.35,49.47,12.62,49.47,14.32 L49.47,14.32z M42.17,12.51c0-1.23-0.07-2.01-0.2-2.32c-0.14-0.32-0.42-0.48-0.86-0.48c-0.44,0-0.73,0.16-0.88,0.48 c-0.14,0.31-0.22,1.09-0.22,2.32v10.84c0,1.14,0.07,1.88,0.22,2.22c0.15,0.35,0.43,0.52,0.86,0.52c0.44,0,0.72-0.15,0.86-0.47 s0.21-0.99,0.21-2.03V12.51L42.17,12.51z M61.21,0.59v3.7c-1.52,0-2.43,0.07-2.7,0.21c-0.28,0.14-0.41,0.54-0.41,1.2v0.77h3.11 v3.82h-1.78v19.6h-7.3V10.3h-1.48V6.48h1.48c0-1.59,0.06-2.65,0.16-3.18c0.11-0.54,0.38-1.01,0.81-1.43 c0.43-0.42,1.03-0.74,1.81-0.96c0.77-0.22,1.98-0.33,3.61-0.33H61.21L61.21,0.59z M71.92,0.59v3.7c-1.53,0-2.43,0.07-2.7,0.21 c-0.28,0.14-0.41,0.54-0.41,1.2v0.77h3.11v3.82h-1.78v19.6h-7.3V10.3h-1.48V6.48h1.48c0-1.59,0.06-2.65,0.16-3.18 c0.11-0.54,0.38-1.01,0.81-1.43c0.43-0.42,1.03-0.74,1.81-0.96c0.77-0.22,1.97-0.33,3.61-0.33H71.92L71.92,0.59z M89.85,18.3h-9.48 v5.21c0,1.09,0.08,1.79,0.23,2.11c0.16,0.31,0.46,0.47,0.91,0.47c0.56,0,0.94-0.21,1.13-0.62c0.19-0.42,0.28-1.23,0.28-2.43v-3.17 h6.93v1.78c0,1.49-0.09,2.63-0.28,3.43c-0.19,0.8-0.63,1.65-1.32,2.56c-0.69,0.91-1.56,1.59-2.62,2.04 c-1.06,0.45-2.38,0.68-3.97,0.68c-1.54,0-2.91-0.22-4.09-0.67c-1.18-0.44-2.1-1.06-2.76-1.83c-0.66-0.78-1.11-1.64-1.37-2.57 c-0.25-0.93-0.38-2.29-0.38-4.08v-7.01c0-2.1,0.29-3.75,0.85-4.97c0.57-1.21,1.49-2.14,2.78-2.79c1.3-0.65,2.78-0.97,4.46-0.97 c2.05,0,3.74,0.39,5.08,1.17c1.33,0.78,2.27,1.81,2.81,3.09c0.54,1.28,0.8,3.09,0.8,5.42V18.3L89.85,18.3z M82.55,14.41v-1.75 c0-1.25-0.07-2.04-0.2-2.41c-0.14-0.36-0.41-0.54-0.83-0.54c-0.52,0-0.84,0.15-0.96,0.46s-0.19,1.14-0.19,2.49v1.75H82.55 L82.55,14.41z M108.79,18.3h-9.48v5.21c0,1.09,0.08,1.79,0.23,2.11c0.16,0.31,0.46,0.47,0.91,0.47c0.56,0,0.94-0.21,1.12-0.62 c0.19-0.42,0.29-1.23,0.29-2.43v-3.17h6.93v1.78c0,1.49-0.09,2.63-0.28,3.43c-0.19,0.8-0.63,1.65-1.32,2.56 c-0.69,0.91-1.56,1.59-2.62,2.04c-1.06,0.45-2.38,0.68-3.97,0.68c-1.54,0-2.91-0.22-4.09-0.67c-1.18-0.44-2.1-1.06-2.76-1.83 c-0.66-0.78-1.11-1.64-1.37-2.57c-0.25-0.93-0.38-2.29-0.38-4.08v-7.01c0-2.1,0.29-3.75,0.85-4.97c0.57-1.21,1.49-2.14,2.78-2.79 c1.3-0.65,2.78-0.97,4.46-0.97c2.05,0,3.74,0.39,5.08,1.17c1.33,0.78,2.27,1.81,2.81,3.09c0.54,1.28,0.8,3.09,0.8,5.42V18.3 L108.79,18.3z M101.49,14.41v-1.75c0-1.25-0.07-2.04-0.2-2.41c-0.14-0.36-0.41-0.54-0.83-0.54c-0.52,0-0.84,0.15-0.96,0.46 s-0.19,1.14-0.19,2.49v1.75H101.49L101.49,14.41z"/></g></svg>